<svg xmlns="http://www.w3.org/2000/svg" viewBox="0 0 64 64">
  <rect width="64" height="64" rx="14" fill="#07080d"/>
  <path d="M36 12v21.5c0 8.2-5.6 13.1-12.5 13.1-5.6 0-10-3.7-10-9 0-5.2 4.4-8.8 10.2-8.8 1 0 2 .1 3 .4v7c-.8-.4-1.8-.7-2.8-.7-2.2 0-3.7 1.1-3.7 3 0 1.7 1.4 2.9 3.4 2.9 2.6 0 4.2-1.8 4.2-5.1V12h8.2z" fill="#fff"/>
  <path d="M39.6 12c1.1 5.4 4.6 8.7 8.9 9.9v7.7c-4.7-.4-8.8-2.2-12-5.4V12h3.1z" fill="#ff2b55"/>
  <rect x="39" y="39" width="17" height="17" rx="5" fill="#7a5cff"/>
  <text x="47.5" y="51.5" text-anchor="middle" font-family="Arial, PingFang SC, Microsoft YaHei, sans-serif" font-size="11" font-weight="900" fill="#fff">投</text>
</svg>
