<svg xmlns="http://www.w3.org/2000/svg" viewBox="0 0 64 64">
  <rect width="64" height="64" rx="14" fill="#07080d"/>
  <path d="M38 13v22.7c0 9.3-6.3 15-14.1 15-6.7 0-11.9-4.4-11.9-10.6 0-6.3 5.3-10.6 12.2-10.6 1.2 0 2.5.1 3.6.5v8.1c-1-.6-2.2-1-3.5-1-2.8 0-4.7 1.5-4.7 3.8 0 2.1 1.8 3.6 4.2 3.6 3.2 0 5.2-2.3 5.2-6.2V13h9z" fill="#29f4ff"/>
  <path d="M42 13c1.2 6.3 5.1 10.1 10 11.5v8.6c-5.2-.5-9.7-2.5-13.2-6v-9.7c.9 2.2 2.1 4 3.2 5V13z" fill="#ff2b55"/>
  <path d="M34 13v22.7c0 9.3-6.3 15-14.1 15-2.3 0-4.4-.5-6.2-1.5 2.3 2.2 5.8 3.5 9.7 3.5 7.8 0 14.1-5.7 14.1-15V15.5A15 15 0 0 0 48 32.3v-7.8c-5.5-1.3-9.5-5.2-10.7-11.5H34z" fill="#fff"/>
</svg>
